<mxfile host="app.diagrams.net" modified="2023-05-03T12:24:50.098Z" agent="Mozilla/5.0 (Macintosh; Intel Mac OS X 10_15_7) AppleWebKit/537.36 (KHTML, like Gecko) Chrome/110.0.0.0 Safari/537.36" version="21.1.4" etag="_x-kgsfeZXEnTOxhacoX" type="github">
  <diagram name="Page-1" id="AlxiHcr3R2ZgtCTmg4tk">
    <mxGraphModel>
      <root>
        <mxCell id="0" />
        <mxCell id="1" parent="0" />
      </root>
    </mxGraphModel>
  </diagram>
</mxfile>
